# xmcd
#
# Track frame offsets:
# 150
# 19837
# 42727
# 61387
# 85550
# 97958
# 128762
# 143453
# 150570
# 170732
#
# Disc length: 2568 seconds
#
#
# Revision: 2
# Processed by: cddbd v1.5.2PL0 Copyright (c) Steve Scherf et al.
# Submitted via: FreeRIP 2.951 
#
DISCID=790a060a
DTITLE=Hobo Blues Band - Vadaskert II
DYEAR=1996
DGENRE=Blues
TTITLE0=Csipkerózsika és a hét törpe
TTITLE1=Óvodai idill
TTITLE2=A medve halála
TTITLE3=Meztelen majom
TTITLE4=Requiem
TTITLE5=Királyválasztás
TTITLE6=Sültbolond
TTITLE7=Felhõlovas
TTITLE8=Isten melyik oldalon áll ?
TTITLE9=Családom a természet
EXTD=YEAR: 1996
EXTT0=
EXTT1=
EXTT2=
EXTT3=
EXTT4=
EXTT5=
EXTT6=
EXTT7=
EXTT8=
EXTT9=
PLAYORDER=
